<?xml version="1.0" encoding="utf-8"?>
<!-- Generator: Adobe Illustrator 19.0.0, SVG Export Plug-In . SVG Version: 6.00 Build 0)  -->
<svg version="1.1" id="layer" xmlns="http://www.w3.org/2000/svg" xmlns:xlink="http://www.w3.org/1999/xlink" x="0px" y="0px"
	 viewBox="-153 -46 652 652" style="enable-background:new -153 -46 652 652;" xml:space="preserve">
<style type="text/css">
	.st0{fill:#27AE60;}
</style>
<path id="OneSoil-logo" class="st0" d="M-79.7,375.8c-14.7,0-27.1-4.9-37-14.7c-9.9-9.9-14.8-22-14.8-36.4s5-26.7,15-36.9
	c10.1-10.1,22.4-15.1,37-15.1s26.9,5,36.9,15.1c10.1,10.1,15.1,22.3,15.1,36.6c0,14.3-5,26.5-15.1,36.4
	C-52.7,370.8-64.9,375.8-79.7,375.8z M-48.3,324.3c0-9.2-3-16.7-9-22.8c-6.1-6.1-13.4-9.2-22.1-9.2s-16.1,3.1-22.1,9.2
	c-6.1,6.1-9,13.8-9,22.8c0,9,3,16.6,8.9,22.7c6.1,6.1,13.5,9,22.3,9s16.2-3,22.3-9C-51.2,340.9-48.2,333.4-48.3,324.3z M-1.2,374.1
	v-39.4c0-10.9,6.7-18.6,16.9-18.6c9.3,0,15.5,6.5,15.5,18.2v39.8h19v-45c0-9.9-2.8-17.4-8.4-22.7c-5.5-5.3-12.4-8-20.4-8
	c-10.4,0-19.2,5.1-23.1,12.3v-10.3h-18.6v73.6H-1.2z M131.6,335.7c0,2.6-0.3,5.4-0.7,8.4H75.8c2.7,10.4,9.9,15.7,21.5,15.7
	c8,0,17.4-3.1,23.8-7.4l7.6,13.4c-9.3,6.7-20,10.1-32.1,10.1c-13,0-22.8-3.8-29.7-11.2c-6.9-7.4-10.3-16.6-10.3-27.3
	c0-11.2,3.5-20.4,10.7-27.7c7.2-7.3,16.3-10.9,27.7-10.9c10.7,0,19.6,3.4,26.5,10C128.1,315.3,131.6,324.2,131.6,335.7z M94.8,314.5
	c-9.6,0-16.7,5.8-19,15.4h37.4C111.4,320.3,104.5,314.5,94.8,314.5z M168.8,375.8c-15.5,0-29.6-6.6-37.8-18.6l11.5-13.9
	c6.5,9,16.2,13.9,26.5,13.9c8.2,0,14.3-4.3,14.3-10.7c0-4-3-7.6-9-10.4c-1.3-0.7-4.6-1.9-9.9-3.9c-5.1-2-9-3.9-11.7-5.4
	c-10.5-6.1-15.8-14.3-15.8-24.8c0-8.4,3.1-15.3,9.4-20.8c6.3-5.5,14.6-8.4,24.6-8.4c13,0,23.9,4.5,32.8,13.5l-10.7,14.6
	c-5.5-5.9-14.4-9.3-21.9-9.3c-8,0-12.8,3.8-12.8,9.6c0,3.9,2.7,7.2,8.1,9.9l9.9,4.3c5.5,2.3,9.6,4,12.1,5.3
	c11.3,5.5,17,13.8,17,24.8c0,8.9-3.4,16.2-10.1,21.9C188.5,372.9,179.7,375.8,168.8,375.8z M208.6,337.3c0-10.8,3.6-20,11.1-27.4
	c7.4-7.6,16.9-11.3,28.3-11.3c11.5,0,20.9,3.8,28.3,11.3c7.4,7.4,11.1,16.6,11.1,27.4c0,10.9-3.6,20.1-11.1,27.5
	C269,372.3,259.5,376,248,376c-11.5,0-20.9-3.8-28.3-11.2C212.3,357.4,208.6,348.2,208.6,337.3z M233.5,352.3
	c3.9,4,8.8,6.1,14.6,6.1c5.8,0,10.5-2,14.4-6.1c3.9-4.2,5.9-9.2,5.9-15s-2-10.8-5.9-14.8c-3.9-4-8.6-6.1-14.4-6.1
	c-5.8,0-10.7,2-14.6,6.1c-3.9,4-5.8,9-5.8,14.8S229.5,348.1,233.5,352.3z M312.7,289c4.5-4.5,4.5-12.3,0-16.6
	c-4.5-4.5-12.3-4.5-16.7,0c-4.5,4.3-4.5,12.1,0,16.6C300.4,293.4,308.3,293.4,312.7,289z M313.8,300.6h-19v73.6h19V300.6z
	 M343.5,271.5v102.6h-19V271.5H343.5z M378.4,180.4l4.4-5.5c5.4,2.6,33.8,8.4,51.1,16c8.6,3.8,17.3,8.9,23.9,16.9
	s10.7,18.9,10.7,31.8c0,13.9-6.2,23.8-12.4,29.5c-3,2.7-6,4.6-8.4,5.9c2.7,13.3,2.8,26.2,2.8,36.9h-18c0-24.7,1.4-50.5-26.2-72.3
	l11-14.4c12.3,9.7,20.2,20.6,25,31.8c0.5-0.4,0.8-0.6,1.4-1.1c3.3-3.1,6.8-7.4,6.8-16.3c0-9.3-2.7-15.3-6.8-20.3s-9.8-9-16.9-12.1
	c-11.9-5.2-24.9-7.5-36-11.5c-3.4,5.6-12.4,21.4-12.4,47.8c0,17.2,4.7,24.5,8.7,28.1c4,3.6,8.8,4.2,10.7,4.2c3.2,0,9.6-3.4,17.7-6.8
	l6.8,16.6c-6.2,2.6-13.7,8.2-24.5,8.2c-4.9,0-14.4-1.4-22.8-9c-3.7-3.3-6.3-6.2-9.5-13.4c-3.2-7.2-5.1-16.4-5.1-27.9
	C360.4,218.5,366.4,197.5,378.4,180.4z"/>
</svg>
